<svg viewBox="0 0 100 100" xmlns="http://www.w3.org/2000/svg">
  <path d="M 35 20 Q 30 25 30 40 Q 30 55 35 70 L 40 70 Q 38 55 38 40 Q 38 25 40 20 Z" fill="#2E7D32"/>
  <path d="M 50 15 Q 45 22 45 40 Q 45 58 50 75 L 55 75 Q 53 58 53 40 Q 53 22 55 15 Z" fill="#388E3C"/>
  <path d="M 65 20 Q 60 25 60 40 Q 60 55 65 70 L 70 70 Q 68 55 68 40 Q 68 25 70 20 Z" fill="#2E7D32"/>
  <path d="M 40 30 L 35 35 L 38 38" fill="#558B2F" opacity="0.6"/>
  <path d="M 60 30 L 65 35 L 62 38" fill="#558B2F" opacity="0.6"/>
</svg>